<svg width="80" height="81" viewBox="0 0 80 81" fill="none" xmlns="http://www.w3.org/2000/svg">
<g clip-path="url(#clip0_1106_474)">
<path d="M67.7675 7.17216C62.5211 4.01426 56.9707 1.77043 51.2632 0.5C50.5522 2.15347 49.7216 4.37739 49.1488 6.14663C42.995 4.95628 36.8979 4.95628 30.8572 6.14663C30.2847 4.37779 29.4354 2.15347 28.7179 0.5C23.0047 1.77102 17.4496 4.02056 12.2007 7.18864C1.75567 27.4938 -1.07589 47.294 0.339734 66.814C7.26755 73.4692 13.9813 77.5123 20.5819 80.1579C22.2223 77.2558 23.6724 74.1834 24.9172 70.9724C22.5473 69.8117 20.2626 68.3813 18.0904 66.6982C18.662 66.1531 19.2202 65.5851 19.7641 64.9949C32.9272 72.9153 47.2297 72.9153 60.236 64.9949C60.7823 65.5812 61.3403 66.1491 61.9094 66.6982C59.7337 68.3857 57.4447 69.819 55.07 70.9808C56.3219 74.2049 57.7694 77.2803 59.4054 80.1659C66.0122 77.5207 72.7322 73.4777 79.66 66.814C81.3213 44.1856 76.8225 24.5667 67.7675 7.17176V7.17216ZM26.7107 54.8095C22.7591 54.8095 19.5185 50.0638 19.5185 44.2849C19.5185 38.506 22.69 33.7523 26.7107 33.7523C30.7316 33.7523 33.9719 38.4976 33.9029 44.2849C33.9091 50.0638 30.7316 54.8095 26.7107 54.8095ZM53.2891 54.8095C49.3375 54.8095 46.0972 50.0638 46.0972 44.2849C46.0972 38.506 49.2685 33.7523 53.2891 33.7523C57.31 33.7523 60.5504 38.4976 60.4813 44.2849C60.4813 50.0638 57.31 54.8095 53.2891 54.8095Z" fill="#5865F2"/>
</g>
<defs>
<clipPath id="clip0_1106_474">
<rect width="80" height="80" fill="white" transform="translate(0 0.5)"/>
</clipPath>
</defs>
</svg>
