<svg width="523" height="400" viewBox="0 0 523 400" fill="none" xmlns="http://www.w3.org/2000/svg">
<path d="M396.216 142.468C435.557 142.468 467.45 110.575 467.45 71.2339C467.45 31.8925 435.557 0 396.216 0C356.874 0 324.982 31.8925 324.982 71.2339C324.982 110.575 356.874 142.468 396.216 142.468Z" fill="url(#paint0_linear_1431_561)"/>
<path d="M5.33158 390.155C-4.62225 380.201 -4.62225 364.077 5.33158 354.123L106.471 252.984C116.424 243.03 132.548 243.03 142.502 252.984C152.456 262.938 152.456 279.062 142.502 289.016L41.3633 390.155C31.4094 400.109 15.2854 400.109 5.33158 390.155Z" fill="url(#paint1_linear_1431_561)"/>
<path d="M467.282 187.023C477.235 196.977 477.235 213.101 467.282 223.055L366.143 324.194C356.189 334.148 340.065 334.148 330.111 324.194C320.157 314.24 320.157 298.116 330.111 288.162L431.25 187.023C441.204 177.084 457.328 177.084 467.282 187.023Z" fill="url(#paint2_linear_1431_561)"/>
<path d="M180.425 332.867C170.471 322.913 170.471 306.789 180.425 296.835L281.564 195.696C291.518 185.742 307.642 185.742 317.596 195.696C327.549 205.65 327.549 221.774 317.596 231.728L216.457 332.867C206.503 342.821 190.379 342.821 180.425 332.867Z" fill="url(#paint3_linear_1431_561)"/>
<path d="M132.3 454.161C122.347 444.207 122.347 428.083 132.3 418.13L233.439 316.991C243.393 307.037 259.517 307.037 269.471 316.991C279.425 326.944 279.425 343.068 269.471 353.022L168.332 454.161C158.378 464.101 142.24 464.101 132.3 454.161Z" fill="url(#paint4_linear_1431_561)"/>
<path d="M-52.9516 351.028C-62.9054 341.074 -62.9054 324.95 -52.9516 314.996L89.5889 170.535C99.5428 160.581 115.667 160.581 125.621 170.535C135.574 180.489 135.574 196.613 125.621 206.567L-16.9199 351.028C-26.8738 360.967 -42.9978 360.967 -52.9516 351.028Z" fill="url(#paint5_linear_1431_561)"/>
<path d="M37.1843 357.871C36.0492 356.751 36.0492 354.917 37.1843 353.782L123.625 267.341C124.746 266.22 126.58 266.22 127.715 267.341C128.835 268.462 128.835 270.295 127.715 271.43L41.2735 357.871C40.153 358.992 38.3194 358.992 37.1843 357.871Z" fill="#00B295"/>
<path d="M101.885 192.349C103.006 193.47 103.006 195.303 101.885 196.438L15.4443 282.879C14.3237 284.014 12.4901 284.014 11.355 282.879C10.2345 281.759 10.2345 279.925 11.355 278.79L97.7962 192.349C98.9313 191.228 100.765 191.228 101.885 192.349Z" fill="url(#paint6_linear_1431_561)"/>
<path d="M172.595 272.765C171.46 271.645 171.46 269.811 172.595 268.676L259.037 182.235C260.157 181.114 261.991 181.114 263.126 182.235C264.246 183.356 264.246 185.189 263.126 186.324L176.685 272.765C175.55 273.9 173.731 273.9 172.595 272.765Z" fill="#EFF8FF"/>
<path d="M64.7916 382.025C63.671 380.904 63.671 379.071 64.7916 377.936L151.233 291.494C152.353 290.374 154.187 290.374 155.322 291.494C156.442 292.615 156.442 294.449 155.322 295.584L68.8808 382.025C67.7457 383.145 65.9121 383.145 64.7916 382.025Z" fill="white"/>
<path d="M420.51 234.216C421.63 235.337 421.63 237.17 420.51 238.305L334.068 324.746C332.948 325.867 331.114 325.867 329.979 324.746C328.844 323.626 328.844 321.792 329.979 320.657L416.42 234.216C417.555 233.096 419.375 233.096 420.51 234.216Z" fill="#EFF8FF"/>
<path d="M436.386 306.41C437.521 307.531 437.521 309.365 436.386 310.5L349.945 396.941C348.81 398.061 346.991 398.061 345.856 396.941C344.735 395.82 344.735 393.987 345.856 392.852L432.297 306.41C433.432 305.29 435.266 305.29 436.386 306.41Z" fill="#00B295"/>
<path d="M322.325 268.88C323.445 270 323.445 271.834 322.325 272.969L235.884 359.41C234.763 360.531 232.93 360.531 231.795 359.41C230.674 358.29 230.674 356.456 231.795 355.321L318.236 268.88C319.371 267.745 321.19 267.745 322.325 268.88Z" fill="#00B295"/>
<path d="M184.15 188.056C183.015 186.921 183.015 185.102 184.15 183.967L270.591 97.5256C271.712 96.405 273.545 96.405 274.681 97.5256C275.801 98.6461 275.801 100.48 274.681 101.615L188.239 188.056C187.104 189.191 185.271 189.191 184.15 188.056Z" fill="#EFF8FF"/>
<path d="M521.576 273.682C522.696 274.803 522.696 276.636 521.576 277.772L435.135 364.213C434.014 365.333 432.181 365.333 431.045 364.213C429.925 363.092 429.925 361.259 431.045 360.123L517.487 273.682C518.622 272.562 520.455 272.562 521.576 273.682Z" fill="#EFF8FF"/>
<path d="M89.3849 246.251C90.5054 247.371 90.5054 249.205 89.3849 250.34L2.94378 336.781C1.82325 337.902 -0.0103545 337.902 -1.14544 336.781C-2.26597 335.661 -2.26597 333.827 -1.14544 332.692L85.2957 246.251C86.4162 245.13 88.2498 245.13 89.3849 246.251Z" fill="url(#paint7_linear_1431_561)"/>
<defs>
<linearGradient id="paint0_linear_1431_561" x1="359.099" y1="-94.1763" x2="493.86" y2="506.474" gradientUnits="userSpaceOnUse">
<stop offset="0.0992" stop-color="white" stop-opacity="0.23"/>
<stop offset="0.7233" stop-color="#00B295" stop-opacity="0.1"/>
</linearGradient>
<linearGradient id="paint1_linear_1431_561" x1="73.917" y1="245.519" x2="73.917" y2="397.62" gradientUnits="userSpaceOnUse">
<stop stop-color="#EFF8FF" stop-opacity="0.42"/>
<stop offset="1" stop-color="#EFF8FF" stop-opacity="0"/>
</linearGradient>
<linearGradient id="paint2_linear_1431_561" x1="232.569" y1="276.139" x2="662.475" y2="223.034" gradientUnits="userSpaceOnUse">
<stop offset="0.0992" stop-color="#EFF8FF"/>
<stop offset="0.3292" stop-color="#00B295" stop-opacity="0.1"/>
<stop offset="0.4384" stop-color="#EFF8FF"/>
<stop offset="0.7233" stop-color="#00B295" stop-opacity="0.1"/>
</linearGradient>
<linearGradient id="paint3_linear_1431_561" x1="249.01" y1="188.231" x2="249.01" y2="340.332" gradientUnits="userSpaceOnUse">
<stop stop-color="#EFF8FF" stop-opacity="0.33"/>
<stop offset="1" stop-color="#EFF8FF" stop-opacity="0"/>
</linearGradient>
<linearGradient id="paint4_linear_1431_561" x1="200.886" y1="309.525" x2="200.886" y2="461.616" gradientUnits="userSpaceOnUse">
<stop stop-color="#EFF8FF" stop-opacity="0.58"/>
<stop offset="1" stop-color="#EFF8FF" stop-opacity="0"/>
</linearGradient>
<linearGradient id="paint5_linear_1431_561" x1="36.3345" y1="163.07" x2="36.3345" y2="358.483" gradientUnits="userSpaceOnUse">
<stop stop-color="#EFF8FF" stop-opacity="0.51"/>
<stop offset="1" stop-color="#00B295" stop-opacity="0.04"/>
</linearGradient>
<linearGradient id="paint6_linear_1431_561" x1="-47.0212" y1="250.417" x2="221.21" y2="217.283" gradientUnits="userSpaceOnUse">
<stop offset="0.0992" stop-color="#00B295"/>
</linearGradient>
<linearGradient id="paint7_linear_1431_561" x1="-59.5346" y1="304.322" x2="208.696" y2="271.187" gradientUnits="userSpaceOnUse">
<stop offset="0.3292" stop-color="#EFF8FF"/>
</linearGradient>
</defs>
</svg>
