<svg width="80" height="81" viewBox="0 0 80 81" fill="none" xmlns="http://www.w3.org/2000/svg">
<g clip-path="url(#clip0_1106_425)">
<path d="M16.8253 50.9125C16.8253 55.5475 13.0794 59.2937 8.44438 59.2937C3.80938 59.2937 0.0634384 55.5475 0.0634384 50.9125C0.0634384 46.2778 3.80938 42.5319 8.44469 42.5319H16.825V50.9128L16.8253 50.9125ZM21.0159 50.9125C21.0159 46.2778 24.7619 42.5319 29.3969 42.5319C34.0319 42.5319 37.7778 46.2778 37.7778 50.9128V71.865C37.7778 76.5 34.0319 80.2462 29.3966 80.2462C24.7622 80.2462 21.0159 76.5 21.0159 71.865V50.9128V50.9125Z" fill="#E01E5A"/>
<path d="M29.3969 17.2619C24.7619 17.2619 21.0156 13.5159 21.0156 8.88094C21.0156 4.24594 24.7622 0.5 29.3969 0.5C34.0316 0.5 37.7778 4.24594 37.7778 8.88094V17.2622H29.3966L29.3969 17.2619ZM29.3969 21.5159C34.0319 21.5159 37.7778 25.2619 37.7778 29.8969C37.7778 34.5319 34.0319 38.2778 29.3966 38.2778H8.38125C3.74594 38.2778 0 34.5319 0 29.8966C0 25.2622 3.74594 21.5159 8.38094 21.5159H29.3966H29.3969Z" fill="#36C5F0"/>
<path d="M62.9844 29.8969C62.9844 25.2619 66.7303 21.5156 71.365 21.5156C76 21.5156 79.7463 25.2619 79.7463 29.8969C79.7463 34.5319 76 38.2778 71.365 38.2778H62.9844V29.8966V29.8969ZM58.7938 29.8969C58.7938 34.5319 55.0475 38.2778 50.4125 38.2778C45.7778 38.2778 42.0319 34.5319 42.0319 29.8966V8.88125C42.0319 4.24594 45.7778 0.5 50.4125 0.5C55.0472 0.5 58.7934 4.24594 58.7934 8.88094V29.8966L58.7938 29.8969Z" fill="#2EB67D"/>
<path d="M50.4125 63.4844C55.0475 63.4844 58.7938 67.2303 58.7938 71.865C58.7938 76.5 55.0475 80.2462 50.4125 80.2462C45.7778 80.2462 42.0319 76.5 42.0319 71.865V63.4844H50.4128H50.4125ZM50.4125 59.2937C45.7778 59.2937 42.0319 55.5475 42.0319 50.9125C42.0319 46.2778 45.7778 42.5319 50.4128 42.5319H71.4284C76.0634 42.5319 79.8097 46.2778 79.8097 50.9128C79.8097 55.5475 76.0634 59.2937 71.4284 59.2937H50.4128H50.4125Z" fill="#ECB22E"/>
</g>
<defs>
<clipPath id="clip0_1106_425">
<rect width="80" height="80" fill="white" transform="translate(0 0.5)"/>
</clipPath>
</defs>
</svg>
