<svg width="80" height="81" viewBox="0 0 80 81" fill="none" xmlns="http://www.w3.org/2000/svg">
<g clip-path="url(#clip0_1106_398)">
<path d="M55.8009 30.3919H76.465C78.4175 30.3919 80 32.0873 80 34.1783V54.3394C80 62.0247 74.1834 68.2553 67.0084 68.2553H66.9469C59.7719 68.2563 53.9544 62.027 53.9534 54.3414V32.3712C53.9534 32.1112 54.0011 31.8539 54.094 31.6138C54.1868 31.3736 54.3229 31.1554 54.4944 30.9716C54.666 30.7878 54.8697 30.642 55.0938 30.5426C55.318 30.4431 55.5583 30.3919 55.8009 30.3919Z" fill="#5059C9"/>
<path d="M69.7675 26.4066C74.3913 26.4066 78.1397 22.3916 78.1397 17.4389C78.1397 12.4862 74.3913 8.47122 69.7675 8.47122C65.1437 8.47122 61.3953 12.4862 61.3953 17.4389C61.3953 22.3916 65.1437 26.4066 69.7675 26.4066Z" fill="#5059C9"/>
<path d="M43.7209 26.4066C50.3998 26.4066 55.8141 20.6072 55.8141 13.4533C55.8141 6.29939 50.3998 0.5 43.7209 0.5C37.0421 0.5 31.6278 6.29939 31.6278 13.4533C31.6278 20.6072 37.0421 26.4066 43.7209 26.4066Z" fill="#7B83EB"/>
<path d="M59.8456 30.3919H25.7359C23.8069 30.4431 22.2809 32.1579 22.3256 34.2242V57.219C22.0562 69.6187 31.2147 79.9086 42.7906 80.2122C54.3666 79.9086 63.525 69.6187 63.2559 57.219V34.2242C63.3006 32.1579 61.7747 30.4431 59.8456 30.3919Z" fill="#7B83EB"/>
<path opacity="0.1" d="M44.6512 30.3919V62.6155C44.6468 63.3383 44.4431 64.0435 44.0658 64.6427C43.6884 65.2419 43.1543 65.7084 42.5303 65.9835C42.124 66.1676 41.6875 66.2624 41.2465 66.2624H23.9625C23.7206 65.6046 23.4975 64.9469 23.3112 64.2697C22.66 61.983 22.3278 59.6058 22.3253 57.215V34.2182C22.2806 32.1553 23.804 30.4431 25.73 30.3922H44.6509L44.6512 30.3919Z" fill="black"/>
<path opacity="0.2" d="M42.7906 30.3919V64.6085C42.7906 65.0808 42.7022 65.5484 42.5303 65.9835C42.2734 66.6519 41.8379 67.224 41.2785 67.6282C40.7191 68.0324 40.0607 68.2505 39.3859 68.2553H24.8375C24.5212 67.5976 24.2234 66.9398 23.9631 66.2624C23.713 65.611 23.4956 64.9459 23.3118 64.2697C22.6606 61.983 22.3284 59.6058 22.3259 57.215V34.2182C22.2812 32.1553 23.8047 30.4431 25.7306 30.3922H42.7909L42.7906 30.3919Z" fill="black"/>
<path opacity="0.2" d="M42.7906 30.3919V60.6229C42.7765 62.6306 41.2606 64.2547 39.3859 64.2697H23.3115C22.6603 61.983 22.3281 59.6058 22.3256 57.215V34.2182C22.2809 32.1553 23.8044 30.4431 25.7303 30.3922H42.7906V30.3919Z" fill="black"/>
<path opacity="0.2" d="M40.9303 30.3919V60.6229C40.9159 62.6306 39.4 64.2547 37.5256 64.2697H23.3115C22.6603 61.983 22.3281 59.6058 22.3256 57.215V34.2182C22.2809 32.1553 23.8044 30.4431 25.7303 30.3922H40.9303V30.3919Z" fill="black"/>
<path opacity="0.1" d="M44.6513 20.0893V26.3664C44.335 26.3865 44.0372 26.4066 43.721 26.4066C43.4047 26.4066 43.1069 26.3865 42.7906 26.3664C42.1627 26.3218 41.5399 26.2152 40.9303 26.0478C39.073 25.5766 37.3461 24.6413 35.891 23.3182C34.4359 21.9951 33.2938 20.3219 32.5581 18.4354C32.3014 17.7927 32.1021 17.1254 31.9628 16.4424H41.2466C43.1238 16.4501 44.6441 18.0782 44.6513 20.0893Z" fill="black"/>
<path opacity="0.2" d="M42.7906 22.0819V26.3664C42.1627 26.3219 41.5399 26.2152 40.9303 26.0478C39.073 25.5766 37.3462 24.6412 35.8911 23.3182C34.4361 21.9951 33.294 20.3219 32.5584 18.4354H39.3859C41.2634 18.4428 42.7834 20.0712 42.7906 22.0819Z" fill="black"/>
<path opacity="0.2" d="M42.7906 22.0819V26.3664C42.1627 26.3219 41.5399 26.2152 40.9303 26.0478C39.073 25.5766 37.3462 24.6412 35.8911 23.3182C34.4361 21.9951 33.294 20.3219 32.5584 18.4354H39.3859C41.2634 18.4428 42.7834 20.0712 42.7906 22.0819Z" fill="black"/>
<path opacity="0.2" d="M40.9303 22.0819V26.0478C39.0729 25.5766 37.346 24.6412 35.8909 23.3181C34.4358 21.9949 33.2937 20.3217 32.5581 18.4351H37.5256C39.4031 18.4428 40.9231 20.0712 40.9303 22.0819Z" fill="black"/>
<path d="M3.41031 18.4351H37.5197C39.4034 18.4351 40.9303 20.0705 40.9303 22.0879V58.6238C40.9303 60.6413 39.4034 62.2767 37.52 62.2767H3.41031C1.52688 62.2767 0 60.6413 0 58.6238V22.0883C0 20.0702 1.52688 18.4347 3.41031 18.4347V18.4351Z" fill="url(#paint0_linear_1106_398)"/>
<path d="M29.44 32.341H22.6212V52.2292H18.2772V32.341H11.4903V28.4829H29.44V32.341Z" fill="white"/>
</g>
<defs>
<linearGradient id="paint0_linear_1106_398" x1="7.11041" y1="15.5806" x2="36.6664" y2="63.3704" gradientUnits="userSpaceOnUse">
<stop stop-color="#5A62C3"/>
<stop offset="0.5" stop-color="#4D55BD"/>
<stop offset="1" stop-color="#3940AB"/>
</linearGradient>
<clipPath id="clip0_1106_398">
<rect width="80" height="80" fill="white" transform="translate(0 0.5)"/>
</clipPath>
</defs>
</svg>
